<?xml version="1.0" encoding="UTF-8" standalone="no"?>
<svg
   xmlns:dc="http://purl.org/dc/elements/1.1/"
   xmlns:cc="http://creativecommons.org/ns#"
   xmlns:rdf="http://www.w3.org/1999/02/22-rdf-syntax-ns#"
   xmlns:svg="http://www.w3.org/2000/svg"
   xmlns="http://www.w3.org/2000/svg"
   xmlns:sodipodi="http://sodipodi.sourceforge.net/DTD/sodipodi-0.dtd"
   xmlns:inkscape="http://www.inkscape.org/namespaces/inkscape"
   version="1.0"
   width="100"
   height="100"
   viewBox="0 0 1026.000000 1025.000000"
   preserveAspectRatio="xMidYMid meet"
   id="svg50"
   sodipodi:docname="logo (1).svg"
   inkscape:version="1.0.2-2 (e86c870879, 2021-01-15)">
  <metadata
     id="metadata56">
    <rdf:RDF>
      <cc:Work
         rdf:about="">
        <dc:format>image/svg+xml</dc:format>
        <dc:type
           rdf:resource="http://purl.org/dc/dcmitype/StillImage" />
      </cc:Work>
    </rdf:RDF>
  </metadata>
  <defs
     id="defs54" />
  <sodipodi:namedview
     pagecolor="#ffffff"
     bordercolor="#666666"
     borderopacity="1"
     objecttolerance="10"
     gridtolerance="10"
     guidetolerance="10"
     inkscape:pageopacity="0"
     inkscape:pageshadow="2"
     inkscape:window-width="1920"
     inkscape:window-height="1017"
     id="namedview52"
     showgrid="false"
     inkscape:zoom="0.62195122"
     inkscape:cx="684"
     inkscape:cy="683.33333"
     inkscape:window-x="1912"
     inkscape:window-y="-8"
     inkscape:window-maximized="1"
     inkscape:current-layer="svg50" />
  <g
     transform="translate(0.000000,1025.000000) scale(0.100000,-0.100000)"
     fill="#000000"
     stroke="none"
     id="g48"
     style="fill:#ff0000">
    <path
       d="M480 10239 c-201 -21 -362 -149 -439 -346 l-26 -68 -3 -2403 c-2 -2624 -6 -2474 55 -2599 39 -81 158 -199 243 -240 84 -41 136 -53 240 -53 104 0 156 12 240 53 83 41 194 150 238 234 65 124 62 -9 62 2276 l0 2077 2093 0 c1407 0 2107 4 2137 11 135 31 286 153 352 286 83 166 73 379 -26 528 -76 115 -192 201 -316 236 -36 11 -533 14 -2410 15 -1301 1 -2399 -2 -2440 -7z"
       id="path38"
       style="fill:#ff0000" />
    <path
       d="M2741 8260 c-213 -30 -411 -142 -544 -307 -116 -144 -168 -259 -193 -426 -59 -390 140 -766 494 -935 134 -63 251 -86 412 -79 250 11 432 95 608 282 152 161 218 319 229 547 14 282 -72 496 -279 694 -109 105 -226 169 -373 205 -94 23 -263 32 -354 19z"
       id="path40"
       style="fill:#ff0000" />
    <path
       d="M4935 5985 c-297 -65 -542 -293 -641 -595 -27 -80 -28 -95 -28 -265 0 -176 0 -182 32 -275 88 -264 293 -469 562 -562 94 -32 97 -33 275 -33 178 0 181 1 275 33 270 94 473 297 563 565 30 89 31 99 32 267 0 153 -3 185 -23 253 -44 154 -123 279 -255 404 -115 109 -243 176 -399 208 -86 18 -310 18 -393 0z"
       id="path42"
       style="fill:#ff0000" />
    <path
       d="M9576 5704 c-163 -39 -300 -163 -368 -332 l-23 -57 -5 -2115 -5 -2115 -2110 -5 c-1959 -5 -2114 -6 -2160 -22 -166 -57 -299 -197 -349 -367 -20 -70 -21 -218 -1 -296 9 -32 28 -81 43 -109 36 -70 154 -184 229 -224 124 -66 -39 -62 2568 -62 2607 0 2444 -4 2568 62 75 40 191 153 229 224 62 115 58 -62 58 2579 0 2661 5 2450 -62 2577 -39 74 -141 176 -215 216 -112 59 -267 77 -397 46z"
       id="path44"
       style="fill:#ff0000" />
    <path
       d="M7205 3724 c-198 -44 -364 -147 -492 -307 -72 -90 -135 -208 -165 -313 -19 -68 -23 -102 -23 -239 1 -171 11 -228 62 -350 102 -243 342 -444 601 -506 74 -18 110 -20 242 -17 141 4 163 7 246 36 136 46 224 102 340 217 116 115 168 195 213 331 89 265 50 561 -102 783 -47 68 -155 179 -223 227 -73 52 -184 105 -269 129 -88 24 -338 30 -430 9z"
       id="path46"
       style="fill:#ff0000" />
  </g>
  <path
     style="fill:#d10f0f;stroke-width:1.60784;fill-opacity:1"
     d="M 56.532661,760.37206 C 39.604214,756.38233 19.254994,740.06156 10.329439,723.3155 5.3287202,713.93319 4.9170487,711.93 3.624453,690.68914 2.8670206,678.24247 2.4343071,529.86471 2.6628673,360.96078 L 3.0784314,53.862745 8.7058824,42.659657 C 19.190845,21.786273 37.896734,7.0283443 58.736499,3.1882262 64.819407,2.0673361 172.67003,1.6690272 389.14826,1.9679651 l 321.38115,0.4437996 10.94771,5.4928621 c 12.1041,6.0730722 26.03836,18.7692482 32.26732,29.4003322 10.95711,18.700727 11.85815,44.552387 2.27462,65.261621 -4.92074,10.6333 -23.95635,29.23587 -35.84259,35.0272 l -9.64706,4.70034 -283.3395,0.45294 -283.33951,0.45294 -0.44481,283.36591 -0.44481,283.36594 -5.23458,10.63222 c -9.10452,18.4926 -29.99314,35.50748 -48.963542,39.88337 -8.306676,1.91609 -23.935259,1.87953 -32.229997,-0.0754 z"
     id="path881"
     transform="scale(0.75000001)" />
  <path
     style="fill:#d10f0f;fill-opacity:1;stroke-width:1.60784"
     d="m 369.66667,496.6731 c -14.58278,-1.23654 -23.155,-3.6964 -36.97702,-10.61078 -41.21227,-20.61622 -65.72214,-59.94506 -65.43854,-105.0035 0.1832,-29.10731 8.56489,-52.24483 27.03974,-74.64275 15.75269,-19.09772 36.00924,-31.59751 61.7664,-38.11444 24.38085,-6.1687 55.81139,-2.47027 80.08088,9.42311 14.59274,7.15124 34.10535,25.03798 44.70136,40.97664 26.61858,40.04006 23.42757,99.61537 -7.23372,135.05179 -28.61315,33.0693 -61.23712,46.54082 -103.9391,42.91993 z"
     id="path883"
     transform="scale(0.75000001)" />
  <path
     style="fill:#d10f0f;fill-opacity:1;stroke-width:1.60784"
     d="m 663.90196,797.97491 c -8.44709,-1.12311 -20.52082,-5.51315 -33.76471,-12.27692 -17.07805,-8.72196 -39.24112,-30.49423 -47.73576,-46.89407 -10.68099,-20.62084 -12.55835,-28.96047 -12.55835,-55.78685 0,-19.96642 0.55246,-25.54938 3.35469,-33.90112 10.62708,-31.67283 31.59711,-56.21298 60.15511,-70.39643 18.14197,-9.01029 32.27722,-11.65699 57.07843,-10.68745 33.42285,1.30658 51.57016,9.27977 75.7058,33.26203 12.7605,12.67942 16.56083,17.66473 22.09186,28.98041 9.49346,19.4222 11.53568,29.03856 11.53568,54.31902 0,18.75954 -0.52194,23.053 -4.1125,33.82886 -5.92591,17.78478 -15.5755,33.11962 -29.51908,46.91094 -17.51462,17.32337 -38.7742,28.88256 -59.30588,32.2456 -8.92057,1.46116 -33.22726,1.68539 -42.92529,0.39598 z"
     id="path885"
     transform="scale(0.75000001)" />
  <path
     style="fill:#d10f0f;fill-opacity:1;stroke-width:1.60784"
     d="m 956.52941,1097.3732 c -20.60972,-5.5886 -40.48555,-17.8683 -55.77832,-34.4612 -12.29912,-13.3448 -19.44896,-24.9427 -25.02262,-40.5897 -3.81509,-10.7102 -4.21058,-14.0809 -4.30775,-36.71446 -0.12045,-28.05488 0.97699,-32.92914 12.48915,-55.47059 8.72854,-17.09098 30.50023,-39.2488 46.89405,-47.72575 19.23191,-9.94448 30.46632,-12.56836 53.81265,-12.56836 26.25043,0 34.44443,1.6387 52.76943,10.5533 27.2664,13.26431 49.7966,39.02175 59.183,67.66046 4.2497,12.96605 4.6663,16.24701 4.6663,36.74702 0,20.47158 -0.4202,23.79188 -4.6406,36.66808 -5.924,18.0737 -14.284,31.001 -29.8358,46.1358 -14.6158,14.224 -28.339,22.7049 -45.5968,28.1784 -10.9144,3.4617 -15.4046,3.9648 -34.56863,3.8727 -13.17269,-0.063 -25.25594,-0.982 -30.06406,-2.2857 z"
     id="path887"
     transform="scale(0.75000001)" />
  <path
     style="fill:#d10f0f;fill-opacity:1;stroke-width:1.60784"
     d="m 729.01961,1365.1452 -71.54902,-0.8903 -9.50591,-4.6674 c -12.92788,-6.3476 -30.19427,-23.5206 -35.90304,-35.7088 -4.09896,-8.7512 -4.43419,-10.9863 -4.43419,-29.565 0,-18.9506 0.26868,-20.6488 4.70615,-29.7451 5.80457,-11.8987 22.79019,-29.2731 33.88209,-34.6577 7.13172,-3.4621 11.03394,-4.0228 34.56862,-4.9675 14.59118,-0.5858 140.57574,-1.1347 279.96569,-1.2199 139.39,-0.085 255.5782,-0.5833 258.196,-1.1068 l 4.7598,-0.952 1.0276,-282.43038 1.0276,-282.4304 5.5721,-11.2549 c 10.3275,-20.86026 29.6059,-35.68204 51.3318,-39.46544 26.1237,-4.54926 50.0816,4.60793 67.9216,25.96097 9.8393,11.77691 12.2364,18.22723 13.6691,36.78295 1.8114,23.46099 1.7409,608.9436 -0.076,632.4098 -1.2425,16.0456 -2.1299,20.1086 -5.7356,26.2614 -6.4455,10.9983 -22.4452,25.699 -34.3471,31.5583 l -10.4813,5.1599 -82.0724,1.0841 c -94.5289,1.2486 -397.19181,1.1548 -502.52349,-0.1558 z"
     id="path889"
     transform="scale(0.75000001)" />
</svg>
